<svg width="60" height="60" viewBox="0 0 60 60" fill="none" xmlns="http://www.w3.org/2000/svg">
<path fill-rule="evenodd" clip-rule="evenodd" d="M41.5023 19.7333H21.8209L20.1393 16.5743C19.9505 16.2197 19.5934 16 19.206 16H17.0687C16.4785 16 16 16.5014 16 17.12C16 17.7386 16.4785 18.24 17.0687 18.24H18.5785L20.238 21.3576L24.0654 30.2328L24.0693 30.2418L24.4064 31.0236L20.5637 35.3193C20.2874 35.6282 20.2009 36.074 20.3402 36.4714C20.4795 36.8689 20.8206 37.15 21.222 37.1981L24.7246 37.6176C29.1057 38.1424 33.5295 38.1424 37.9106 37.6176L41.4132 37.1981C41.9996 37.1279 42.4206 36.5727 42.3536 35.9582C42.2866 35.3436 41.7569 34.9023 41.1705 34.9726L37.6679 35.3921C33.4481 35.8975 29.1871 35.8975 24.9673 35.3921L23.5773 35.2256L26.3977 32.0727C26.4249 32.0422 26.4503 32.0105 26.4737 31.9778L27.5464 32.1241C29.0495 32.3291 30.569 32.3693 32.0801 32.244C35.6045 31.9519 38.8709 30.1943 41.1514 27.3629L41.9751 26.3402C42.0028 26.3059 42.0284 26.2698 42.052 26.2322L43.5871 23.7804C44.6752 22.0425 43.4857 19.7333 41.5023 19.7333ZM26.5531 29.7298C26.3174 29.6976 26.1142 29.5407 26.015 29.3146L26.0131 29.3102L22.8491 21.9733H41.5023C41.7856 21.9733 41.9556 22.3032 41.8001 22.5515L40.3003 24.9469L39.5182 25.918C37.6059 28.2922 34.8669 29.766 31.9115 30.011C30.5485 30.124 29.178 30.0877 27.8221 29.9028L26.5531 29.7298Z" fill="white"/>
<path d="M23.4807 39.52C22.3003 39.52 21.3433 40.5229 21.3433 41.76C21.3433 42.9971 22.3003 44 23.4807 44C24.6611 44 25.618 42.9971 25.618 41.76C25.618 40.5229 24.6611 39.52 23.4807 39.52Z" fill="white"/>
<path d="M37.0171 41.76C37.0171 40.5229 37.9741 39.52 39.1545 39.52C40.3349 39.52 41.2918 40.5229 41.2918 41.76C41.2918 42.9971 40.3349 44 39.1545 44C37.9741 44 37.0171 42.9971 37.0171 41.76Z" fill="white"/>
</svg>
