<svg width="20" height="20" viewBox="0 0 20 20" fill="none" xmlns="http://www.w3.org/2000/svg">
<path fill-rule="evenodd" clip-rule="evenodd" d="M11.5469 5.18518H0.857143C0.383756 5.18518 0 4.68772 0 4.07407C0 3.46042 0.383756 2.96296 0.857143 2.96296H11.5469C11.92 1.25296 13.1328 0 14.5714 0C16.01 0 17.2229 1.25296 17.596 2.96296H19.1429C19.6162 2.96296 20 3.46042 20 4.07407C20 4.68772 19.6162 5.18518 19.1429 5.18518H17.596C17.2229 6.89519 16.01 8.14815 14.5714 8.14815C13.1328 8.14815 11.92 6.89519 11.5469 5.18518ZM13.1429 4.07407C13.1429 3.05132 13.7825 2.22222 14.5714 2.22222C15.3604 2.22222 16 3.05132 16 4.07407C16 5.09682 15.3604 5.92593 14.5714 5.92593C13.7825 5.92593 13.1429 5.09682 13.1429 4.07407Z" fill="white"/>
<path fill-rule="evenodd" clip-rule="evenodd" d="M8.45312 17.037H19.1429C19.6162 17.037 20 16.5396 20 15.9259C20 15.3123 19.6162 14.8148 19.1429 14.8148H8.45312C8.08002 13.1048 6.86717 11.8519 5.42857 11.8519C3.98997 11.8519 2.77712 13.1048 2.40402 14.8148H0.857143C0.383756 14.8148 0 15.3123 0 15.9259C0 16.5396 0.383756 17.037 0.857143 17.037H2.40402C2.77712 18.747 3.98997 20 5.42857 20C6.86717 20 8.08002 18.747 8.45312 17.037ZM4 15.9259C4 14.9032 4.63959 14.0741 5.42857 14.0741C6.21755 14.0741 6.85714 14.9032 6.85714 15.9259C6.85714 16.9487 6.21755 17.7778 5.42857 17.7778C4.63959 17.7778 4 16.9487 4 15.9259Z" fill="white"/>
</svg>
