<svg width="60" height="60" viewBox="0 0 60 60" fill="none" xmlns="http://www.w3.org/2000/svg">
<rect x="1" y="1" width="58" height="58" rx="11" fill="#EBF9FA"/>
<rect x="1" y="1" width="58" height="58" rx="11" stroke="#3AFF75" stroke-width="2"/>
<path d="M25.0724 16C24.124 16 21.2647 17.5671 20.7517 17.8803C20.2387 18.1935 19.6693 19.1712 19.0232 20.7848C18.3762 22.3984 17.8571 24.2846 17.0136 27.0593C16.1709 29.8339 15.9744 35.1832 16.0026 36.8158C16.0308 38.4484 16.1691 39.7238 17.4075 40.6896C18.6451 41.6542 19.7398 42.664 20.8918 43.2713C22.0447 43.8786 22.8309 44.3157 23.3651 43.7084C23.8992 43.101 24.2509 42.0376 24.2509 42.0376C24.2509 42.0376 24.7569 41.0885 23.8014 40.5193C22.8459 39.9489 22.3682 39.55 22.4096 38.9617C22.4519 38.3734 22.5216 38.0507 22.7604 38.1269C22.9993 38.2031 23.5625 39.569 25.7264 40.1954C27.8903 40.8218 29.9996 40.7277 29.9996 40.7277C29.9996 40.7277 32.1097 40.823 34.2736 40.1954C36.4375 39.569 36.9998 38.2031 37.2387 38.1269C37.4776 38.0507 37.5472 38.3734 37.5895 38.9605C37.6318 39.55 37.1541 39.9489 36.1986 40.5193C35.2431 41.0885 35.7491 42.0376 35.7491 42.0376C35.7491 42.0376 36.1008 43.0998 36.6349 43.7084C37.1682 44.3157 37.9553 43.8786 39.1073 43.2713C40.2593 42.664 41.3549 41.6554 42.5925 40.6896C43.8309 39.7238 43.9692 38.4484 43.9974 36.8158C44.0256 35.1844 43.8291 29.8339 42.9856 27.0593C42.1429 24.2846 41.6229 22.3984 40.9759 20.7848C40.3307 19.1712 39.7604 18.1935 39.2483 17.8791C38.7353 17.5671 35.8751 16 34.9267 16C33.9783 16 33.698 16.8931 33.698 16.8931L33.3675 17.8803C33.3675 17.8803 31.1463 17.3099 30.0145 17.3087C28.8828 17.3087 26.6325 17.8803 26.6325 17.8803L26.302 16.8919C26.302 16.8919 26.0217 16 25.0724 16ZM25.1755 27.8464H25.2108C26.5937 27.8464 27.714 29.4814 27.714 31.4975C27.714 33.5148 26.5937 35.1486 25.2108 35.1486C23.8278 35.1486 22.7075 33.5148 22.7075 31.4975C22.7067 29.5005 23.8067 27.8738 25.1755 27.8464ZM34.7892 27.8464H34.8245C36.1933 27.8738 37.2925 29.5017 37.2925 31.4975C37.2925 33.5148 36.1722 35.1486 34.7892 35.1486C33.4054 35.1486 32.286 33.5148 32.286 31.4975C32.286 29.4814 33.4054 27.8464 34.7892 27.8464Z" fill="#3AFF75"/>
</svg>
