<svg width="60" height="60" viewBox="0 0 60 60" fill="none" xmlns="http://www.w3.org/2000/svg">
<rect x="1" y="1" width="58" height="58" rx="11" fill="#EBF9FA"/>
<rect x="1" y="1" width="58" height="58" rx="11" stroke="#3AFF75" stroke-width="2"/>
<path d="M44 19.3546C42.9477 19.9154 41.8348 20.2861 40.696 20.4552C41.8974 19.5736 42.7978 18.1865 43.23 16.5514C42.101 17.377 40.8651 17.9586 39.576 18.2711C38.7144 17.1233 37.567 16.3593 36.3137 16.0988C35.0605 15.8384 33.7724 16.0962 32.6513 16.832C31.5303 17.5678 30.6397 18.7398 30.1193 20.1643C29.599 21.5888 29.4782 23.1852 29.776 24.7031C27.4932 24.5612 25.2602 23.8311 23.2221 22.56C21.184 21.2889 19.3864 19.5054 17.946 17.3253C17.4408 18.409 17.1753 19.6363 17.176 20.8852C17.1742 22.045 17.4059 23.1873 17.8505 24.2105C18.295 25.2337 18.9386 26.1059 19.724 26.7496C18.8112 26.7191 17.9178 26.4182 17.12 25.8725V25.9585C17.1268 27.5835 17.5904 29.1557 18.4322 30.4092C19.2741 31.6627 20.4426 32.5205 21.74 32.8376C21.2406 33.0243 20.722 33.1228 20.2 33.13C19.8386 33.1248 19.4782 33.0845 19.122 33.0096C19.4915 34.4074 20.2065 35.629 21.1675 36.5044C22.1285 37.3798 23.2878 37.8654 24.484 37.8937C22.4641 39.8461 19.9702 40.9117 17.4 40.9205C16.932 40.9224 16.4644 40.888 16 40.8173C18.6242 42.8987 21.6823 44.0036 24.806 43.9989C26.9616 44.0264 29.1 43.526 31.0964 42.5269C33.0927 41.5279 34.907 40.0501 36.4333 38.1801C37.9595 36.31 39.1671 34.0851 39.9856 31.6353C40.804 29.1855 41.2169 26.56 41.2 23.912C41.2 23.6196 41.2 23.3101 41.2 23.0005C42.2986 21.9941 43.2461 20.7604 44 19.3546Z" fill="#3AFF75"/>
</svg>
