<svg width="60" height="60" viewBox="0 0 60 60" fill="none" xmlns="http://www.w3.org/2000/svg">
<rect x="1" y="1" width="58" height="58" rx="11" fill="#EBF9FA"/>
<rect x="1" y="1" width="58" height="58" rx="11" stroke="#3AFF75" stroke-width="2"/>
<path d="M37.476 20.844C37.1437 20.844 36.8189 20.9425 36.5426 21.1271C36.2664 21.3117 36.051 21.5741 35.9239 21.8811C35.7967 22.1881 35.7635 22.5259 35.8283 22.8518C35.8931 23.1776 36.0531 23.477 36.2881 23.7119C36.523 23.9469 36.8224 24.1069 37.1482 24.1717C37.4741 24.2365 37.8119 24.2033 38.1189 24.0761C38.4259 23.949 38.6883 23.7336 38.8729 23.4574C39.0575 23.1811 39.156 22.8563 39.156 22.524C39.156 22.0784 38.979 21.6511 38.6639 21.3361C38.3489 21.021 37.9216 20.844 37.476 20.844ZM43.916 24.232C43.8888 23.0704 43.6712 21.9212 43.272 20.83C42.916 19.8964 42.362 19.051 41.648 18.352C40.9548 17.6344 40.1074 17.0838 39.17 16.742C38.0817 16.3306 36.9312 16.1081 35.768 16.084C34.284 16 33.808 16 30 16C26.192 16 25.716 16 24.232 16.084C23.0688 16.1081 21.9183 16.3306 20.83 16.742C19.8943 17.0873 19.0477 17.6374 18.352 18.352C17.6344 19.0452 17.0838 19.8926 16.742 20.83C16.3306 21.9183 16.1081 23.0688 16.084 24.232C16 25.716 16 26.192 16 30C16 33.808 16 34.284 16.084 35.768C16.1081 36.9312 16.3306 38.0817 16.742 39.17C17.0838 40.1074 17.6344 40.9548 18.352 41.648C19.0477 42.3626 19.8943 42.9127 20.83 43.258C21.9183 43.6694 23.0688 43.8919 24.232 43.916C25.716 44 26.192 44 30 44C33.808 44 34.284 44 35.768 43.916C36.9312 43.8919 38.0817 43.6694 39.17 43.258C40.1074 42.9162 40.9548 42.3656 41.648 41.648C42.3651 40.9516 42.9197 40.1055 43.272 39.17C43.6712 38.0788 43.8888 36.9296 43.916 35.768C43.916 34.284 44 33.808 44 30C44 26.192 44 25.716 43.916 24.232ZM41.396 35.6C41.3858 36.4887 41.2249 37.3692 40.92 38.204C40.6965 38.8133 40.3374 39.3638 39.87 39.814C39.4159 40.2767 38.8665 40.635 38.26 40.864C37.4252 41.1689 36.5447 41.3298 35.656 41.34C34.256 41.41 33.738 41.424 30.056 41.424C26.374 41.424 25.856 41.424 24.456 41.34C23.5332 41.3573 22.6144 41.2152 21.74 40.92C21.1601 40.6793 20.6359 40.3219 20.2 39.87C19.7353 39.4202 19.3808 38.8693 19.164 38.26C18.8222 37.4132 18.6326 36.5127 18.604 35.6C18.604 34.2 18.52 33.682 18.52 30C18.52 26.318 18.52 25.8 18.604 24.4C18.6103 23.4915 18.7761 22.5911 19.094 21.74C19.3405 21.1491 19.7188 20.6223 20.2 20.2C20.6253 19.7186 21.151 19.3363 21.74 19.08C22.5934 18.7721 23.4928 18.6111 24.4 18.604C25.8 18.604 26.318 18.52 30 18.52C33.682 18.52 34.2 18.52 35.6 18.604C36.4887 18.6142 37.3692 18.7751 38.204 19.08C38.8402 19.3161 39.4112 19.7 39.87 20.2C40.3288 20.63 40.6873 21.1558 40.92 21.74C41.2312 22.5925 41.3922 23.4925 41.396 24.4C41.466 25.8 41.48 26.318 41.48 30C41.48 33.682 41.466 34.2 41.396 35.6ZM30 22.818C28.5801 22.8208 27.1929 23.2443 26.0137 24.0352C24.8345 24.826 23.9161 25.9487 23.3747 27.2613C22.8332 28.5738 22.693 30.0175 22.9717 31.4097C23.2504 32.8019 23.9355 34.0803 24.9405 35.0834C25.9455 36.0864 27.2252 36.769 28.618 37.045C30.0108 37.321 31.4541 37.1779 32.7657 36.634C34.0772 36.09 35.198 35.1694 35.9866 33.9886C36.7751 32.8079 37.196 31.4199 37.196 30C37.1979 29.0551 37.0129 28.1192 36.6517 27.2461C36.2906 26.373 35.7604 25.5799 35.0916 24.9125C34.4229 24.245 33.6287 23.7163 32.7549 23.3569C31.8811 22.9975 30.9448 22.8143 30 22.818ZM30 34.662C29.0779 34.662 28.1766 34.3886 27.4099 33.8763C26.6433 33.364 26.0457 32.6359 25.6929 31.7841C25.34 30.9322 25.2477 29.9948 25.4276 29.0905C25.6075 28.1861 26.0515 27.3555 26.7035 26.7035C27.3555 26.0515 28.1861 25.6075 29.0905 25.4276C29.9948 25.2477 30.9322 25.34 31.7841 25.6929C32.6359 26.0457 33.364 26.6433 33.8763 27.4099C34.3886 28.1766 34.662 29.0779 34.662 30C34.662 30.6122 34.5414 31.2184 34.3071 31.7841C34.0728 32.3497 33.7294 32.8636 33.2965 33.2965C32.8636 33.7294 32.3497 34.0728 31.7841 34.3071C31.2184 34.5414 30.6122 34.662 30 34.662Z" fill="#3AFF75"/>
</svg>
