<svg width="60" height="60" viewBox="0 0 60 60" fill="none" xmlns="http://www.w3.org/2000/svg">
<rect x="1" y="1" width="58" height="58" rx="11" fill="#EBF9FA"/>
<rect x="1" y="1" width="58" height="58" rx="11" stroke="#3AFF75" stroke-width="2"/>
<path fill-rule="evenodd" clip-rule="evenodd" d="M36.2694 16.0235C36.2714 16.4506 36.4173 22.6232 43.9974 23.0082C43.9974 24.7882 44 26.0789 44 27.7775C43.426 27.8059 39.0097 27.5319 36.2611 25.4368L36.2528 34.7217C36.3571 41.166 30.8075 45.0876 23.5537 43.733C11.0453 40.5355 15.2018 24.6816 27.7614 26.3786C27.7614 31.4967 27.7646 26.3769 27.7646 31.4967C22.5759 30.8443 20.8403 34.533 22.2194 37.1738C23.4737 39.5784 28.64 40.0996 30.4421 36.7073C30.6462 36.0434 30.748 35.2866 30.748 34.4367V16L36.2694 16.0235Z" fill="#3AFF75"/>
</svg>
