<svg width="60" height="60" viewBox="0 0 60 60" fill="none" xmlns="http://www.w3.org/2000/svg">
<rect x="1" y="1" width="58" height="58" rx="11" fill="#EBF9FA"/>
<rect x="1" y="1" width="58" height="58" rx="11" stroke="#3AFF75" stroke-width="2"/>
<path d="M40.8791 26.7228C39.9948 26.7228 39.2166 27.1111 38.6438 27.7162C36.5379 26.1725 33.6983 25.1791 30.5518 25.0732L32.1863 17.2746L37.3908 18.5115C37.3908 19.8603 38.4291 20.9621 39.7031 20.9621C41.0016 20.9621 42.0458 19.8311 42.0458 18.481C42.0458 17.131 41.0086 16 39.7043 16C38.7954 16 38.0114 16.5807 37.6206 17.3744L31.8724 16.0256C31.5831 15.944 31.2996 16.1631 31.2226 16.4699L29.4283 25.0671C26.3063 25.2047 23.4969 26.1969 21.3841 27.7417C20.8113 27.1111 20.0028 26.7228 19.1185 26.7228C15.8378 26.7228 14.7633 31.3842 17.7675 32.9777C17.6613 33.4708 17.6135 33.9967 17.6135 34.5214C17.6135 39.7574 23.1843 44 30.0244 44C36.8938 44 42.4646 39.7574 42.4646 34.5214C42.4646 33.9967 42.4121 33.4464 42.2826 32.9522C45.2261 31.3525 44.1422 26.7252 40.8791 26.7228ZM22.5344 33.3089C22.5344 31.9344 23.5728 30.8278 24.8771 30.8278C26.1511 30.8278 27.1906 31.9271 27.1906 33.3089C27.1906 34.659 26.1523 35.7595 24.8771 35.7595C23.5786 35.7656 22.5344 34.659 22.5344 33.3089ZM35.1799 39.1499C33.0321 41.424 26.9713 41.424 24.8223 39.1499C24.5854 38.9308 24.5854 38.5437 24.8223 38.2941C25.0288 38.075 25.3951 38.075 25.6016 38.2941C27.2419 40.0751 32.6833 40.1056 34.3948 38.2941C34.6013 38.075 34.9676 38.075 35.1741 38.2941C35.4156 38.5449 35.4156 38.932 35.1799 39.1499ZM35.1321 35.7643C33.8581 35.7643 32.8198 34.665 32.8198 33.3162C32.8198 31.9417 33.8581 30.8351 35.1321 30.8351C36.4306 30.8351 37.4748 31.9344 37.4748 33.3162C37.4689 34.659 36.4306 35.7643 35.1321 35.7643Z" fill="#3AFF75"/>
</svg>
