<svg width="60" height="60" viewBox="0 0 60 60" fill="none" xmlns="http://www.w3.org/2000/svg">
<rect x="1" y="1" width="58" height="58" rx="11" fill="#EBF9FA"/>
<rect x="1" y="1" width="58" height="58" rx="11" stroke="#3AFF75" stroke-width="2"/>
<path d="M29.9999 16C26.6756 16.0001 23.4598 17.2131 20.928 19.4218C18.3961 21.6305 16.7133 24.6909 16.1808 28.0553C15.6483 31.4197 16.3008 34.8686 18.0215 37.7849C19.7422 40.7011 22.4188 42.8945 25.5725 43.9725C26.2725 44.0981 26.535 43.6675 26.535 43.2907C26.535 42.9498 26.5175 41.8194 26.5175 40.6173C23 41.2811 22.09 39.7381 21.81 38.9307C21.4993 38.1454 21.0068 37.4495 20.375 36.9031C19.885 36.634 19.185 35.9701 20.3575 35.9522C20.8052 36.002 21.2346 36.1617 21.6093 36.4179C21.984 36.674 22.2929 37.0189 22.51 37.4235C22.7015 37.7761 22.9589 38.0866 23.2677 38.3371C23.5764 38.5876 23.9302 38.7731 24.309 38.8831C24.6878 38.9932 25.084 39.0255 25.475 38.9782C25.866 38.9309 26.244 38.805 26.5874 38.6077C26.648 37.8779 26.9652 37.1957 27.48 36.6879C24.365 36.329 21.11 35.0909 21.11 29.6005C21.0903 28.174 21.6038 26.7937 22.545 25.7429C22.117 24.503 22.1671 23.1423 22.685 21.939C22.685 21.939 23.8574 21.5622 26.535 23.4103C28.8258 22.7644 31.2441 22.7644 33.5349 23.4103C36.2124 21.5443 37.3849 21.939 37.3849 21.939C37.9029 23.1423 37.953 24.503 37.5249 25.7429C38.469 26.7919 38.9828 28.1734 38.9599 29.6005C38.9599 35.1089 35.6874 36.329 32.5724 36.6879C32.9065 37.0351 33.1638 37.4519 33.3269 37.9101C33.49 38.3683 33.5549 38.8572 33.5174 39.3434C33.5174 41.2633 33.4999 42.8063 33.4999 43.2908C33.4999 43.6676 33.7624 44.1161 34.4624 43.9726C37.6105 42.8858 40.2795 40.6873 41.9928 37.7695C43.7062 34.8517 44.3525 31.4046 43.8163 28.0434C43.2801 24.6823 41.5963 21.6259 39.0655 19.4199C36.5348 17.2139 33.3217 16.0018 29.9999 16Z" fill="#3AFF75"/>
</svg>
