<svg width="55" height="36" viewBox="0 0 55 36" fill="none" xmlns="http://www.w3.org/2000/svg">
<path d="M16.851 20.106C16.851 18.8333 17.1117 17.7063 17.633 16.725C18.1697 15.7437 18.8903 14.9847 19.795 14.448C20.715 13.896 21.727 13.62 22.831 13.62C23.8277 13.62 24.694 13.8193 25.43 14.218C26.1813 14.6013 26.7793 15.0843 27.224 15.667V13.827H29.869V26.5H27.224V24.614C26.7793 25.212 26.1737 25.7103 25.407 26.109C24.6403 26.5077 23.7663 26.707 22.785 26.707C21.6963 26.707 20.6997 26.431 19.795 25.879C18.8903 25.3117 18.1697 24.5297 17.633 23.533C17.1117 22.521 16.851 21.3787 16.851 20.106ZM27.224 20.152C27.224 19.278 27.04 18.519 26.672 17.875C26.3193 17.231 25.8517 16.7403 25.269 16.403C24.6863 16.0657 24.0577 15.897 23.383 15.897C22.7083 15.897 22.0797 16.0657 21.497 16.403C20.9143 16.725 20.439 17.208 20.071 17.852C19.7183 18.4807 19.542 19.232 19.542 20.106C19.542 20.98 19.7183 21.7467 20.071 22.406C20.439 23.0653 20.9143 23.5713 21.497 23.924C22.095 24.2613 22.7237 24.43 23.383 24.43C24.0577 24.43 24.6863 24.2613 25.269 23.924C25.8517 23.5867 26.3193 23.096 26.672 22.452C27.04 21.7927 27.224 21.026 27.224 20.152ZM35.9349 15.667C36.3182 15.023 36.8242 14.5247 37.4529 14.172C38.0969 13.804 38.8559 13.62 39.7299 13.62V16.334H39.0629C38.0356 16.334 37.2536 16.5947 36.7169 17.116C36.1956 17.6373 35.9349 18.542 35.9349 19.83V26.5H33.3129V13.827H35.9349V15.667ZM53.755 19.853C53.755 20.3283 53.7244 20.7577 53.663 21.141H43.98C44.0567 22.153 44.4324 22.9657 45.107 23.579C45.7817 24.1923 46.6097 24.499 47.591 24.499C49.0017 24.499 49.9984 23.9087 50.581 22.728H53.41C53.0267 23.8933 52.329 24.8517 51.317 25.603C50.3204 26.339 49.0784 26.707 47.591 26.707C46.3797 26.707 45.291 26.4387 44.325 25.902C43.3744 25.35 42.623 24.5833 42.071 23.602C41.5344 22.6053 41.266 21.4553 41.266 20.152C41.266 18.8487 41.5267 17.7063 42.048 16.725C42.5847 15.7283 43.3284 14.9617 44.279 14.425C45.245 13.8883 46.349 13.62 47.591 13.62C48.787 13.62 49.8527 13.8807 50.788 14.402C51.7234 14.9233 52.4517 15.6593 52.973 16.61C53.4944 17.5453 53.755 18.6263 53.755 19.853ZM51.018 19.025C51.0027 18.059 50.6577 17.2847 49.983 16.702C49.3084 16.1193 48.4727 15.828 47.476 15.828C46.5714 15.828 45.797 16.1193 45.153 16.702C44.509 17.2693 44.1257 18.0437 44.003 19.025H51.018Z" fill="#33BBC5"/>
<path d="M0 13.166L16 26.4999H0V13.166Z" fill="#33BBC5"/>
<path fill-rule="evenodd" clip-rule="evenodd" d="M7.42857 18.7228C11.5313 18.7228 14.8571 15.9866 14.8571 12.6114C14.8571 9.23616 11.5313 6.5 7.42857 6.5C7.037 6.5 6.6525 6.52492 6.27729 6.57295C8.74399 6.9483 10.6122 8.72729 10.6122 10.8653C10.6122 13.2761 8.23661 15.2305 5.30612 15.2305C2.70734 15.2305 0.544922 13.6936 0.0886748 11.6642C0.030297 11.9729 0 12.2892 0 12.6114C0 15.9866 3.32588 18.7228 7.42857 18.7228Z" fill="#33BBC5"/>
</svg>
