<svg width="68" height="60" viewBox="0 0 68 60" fill="none" xmlns="http://www.w3.org/2000/svg">
<rect x="1" y="1" width="66" height="58" rx="11" fill="#EBF9FA"/>
<rect x="1" y="1" width="66" height="58" rx="11" stroke="#614BC3" stroke-width="2"/>
<path d="M32.2104 16.5988C31.8852 16.1292 31.3163 15.9035 30.7654 16.0389C24.4254 17.6013 20 23.264 20 29.8117C20 37.6329 26.3671 44 34.1883 44C40.736 44 46.3986 39.5746 47.9611 33.2346C48.0965 32.6837 47.8708 32.1147 47.4012 31.7896C46.9406 31.4735 46.3174 31.4825 45.8568 31.8077C44.186 32.9908 42.2262 33.623 40.1851 33.623C34.7753 33.623 30.377 29.2247 30.377 23.8149C30.377 21.7738 31.0092 19.814 32.1923 18.1432C32.5175 17.6826 32.5265 17.0594 32.2104 16.5988Z" fill="#614BC3"/>
</svg>
