<svg width="20" height="20" viewBox="0 0 20 20" fill="none" xmlns="http://www.w3.org/2000/svg">
<path fill-rule="evenodd" clip-rule="evenodd" d="M11.7859 3.33511L10 0L8.21415 3.33511L5 1.33975L5.12096 5.12096L1.33975 5L3.33511 8.21415L0 10L3.33511 11.7859L1.33975 15L5.12096 14.879L5 18.6603L8.21415 16.6649L10 20L11.7859 16.6649L15 18.6603L14.879 14.879L18.6603 15L16.6649 11.7859L20 10L16.6649 8.21415L18.6603 5L14.879 5.12096L15 1.33975L11.7859 3.33511ZM14.4859 8.05742C14.6951 7.84821 14.6951 7.50902 14.4859 7.29981C14.2767 7.0906 13.9375 7.0906 13.7283 7.29981L9.1071 11.921L6.62876 9.44267C6.41955 9.23346 6.08036 9.23346 5.87115 9.44267C5.66194 9.65188 5.66194 9.99107 5.87115 10.2003L8.72829 13.0574C8.9375 13.2666 9.27669 13.2666 9.4859 13.0574L14.4859 8.05742Z" fill="#00C2FF"/>
</svg>
