<svg width="24" height="25" viewBox="0 0 24 25" fill="none" xmlns="http://www.w3.org/2000/svg">
<path fill-rule="evenodd" clip-rule="evenodd" d="M14.143 4.50213L12 0.5L9.85698 4.50213L6 2.1077L6.14516 6.64516L1.6077 6.5L4.00213 10.357L0 12.5L4.00213 14.643L1.6077 18.5L6.14516 18.3548L6 22.8923L9.85698 20.4979L12 24.5L14.143 20.4979L18 22.8923L17.8548 18.3548L22.3923 18.5L19.9979 14.643L24 12.5L19.9979 10.357L22.3923 6.5L17.8548 6.64516L18 2.1077L14.143 4.50213ZM17.3831 10.1689C17.6341 9.91786 17.6341 9.51082 17.3831 9.25977C17.132 9.00872 16.725 9.00872 16.4739 9.25977L10.9285 14.8052L7.95451 11.8312C7.70346 11.5801 7.29643 11.5801 7.04537 11.8312C6.79432 12.0822 6.79432 12.4893 7.04537 12.7403L10.4739 16.1689C10.725 16.42 11.132 16.42 11.3831 16.1689L17.3831 10.1689Z" fill="#3AFF75"/>
</svg>
