<svg width="68" height="60" viewBox="0 0 68 60" fill="none" xmlns="http://www.w3.org/2000/svg">
<rect x="1" y="1" width="66" height="58" rx="11" fill="#EBF9FA"/>
<rect x="1" y="1" width="66" height="58" rx="11" stroke="#614BC3" stroke-width="2"/>
<path d="M33.986 16C26.258 16 20 22.272 20 30C20 37.728 26.258 44 33.986 44C41.728 44 48 37.728 48 30C48 22.272 41.728 16 33.986 16ZM43.688 24.4H39.558C39.11 22.65 38.466 20.97 37.626 19.416C40.202 20.298 42.344 22.09 43.688 24.4ZM34 18.856C35.162 20.536 36.072 22.398 36.674 24.4H31.326C31.928 22.398 32.838 20.536 34 18.856ZM23.164 32.8C22.94 31.904 22.8 30.966 22.8 30C22.8 29.034 22.94 28.096 23.164 27.2H27.896C27.784 28.124 27.7 29.048 27.7 30C27.7 30.952 27.784 31.876 27.896 32.8H23.164ZM24.312 35.6H28.442C28.89 37.35 29.534 39.03 30.374 40.584C27.798 39.702 25.656 37.924 24.312 35.6ZM28.442 24.4H24.312C25.656 22.076 27.798 20.298 30.374 19.416C29.534 20.97 28.89 22.65 28.442 24.4ZM34 41.144C32.838 39.464 31.928 37.602 31.326 35.6H36.674C36.072 37.602 35.162 39.464 34 41.144ZM37.276 32.8H30.724C30.598 31.876 30.5 30.952 30.5 30C30.5 29.048 30.598 28.11 30.724 27.2H37.276C37.402 28.11 37.5 29.048 37.5 30C37.5 30.952 37.402 31.876 37.276 32.8ZM37.626 40.584C38.466 39.03 39.11 37.35 39.558 35.6H43.688C42.344 37.91 40.202 39.702 37.626 40.584ZM40.104 32.8C40.216 31.876 40.3 30.952 40.3 30C40.3 29.048 40.216 28.124 40.104 27.2H44.836C45.06 28.096 45.2 29.034 45.2 30C45.2 30.966 45.06 31.904 44.836 32.8H40.104Z" fill="#614BC3"/>
</svg>
